PathFileType	4	(X/Y/Z)	C:\Users\Basilio\Documents\Thesis Gigler\squatting_fais\c3dfiles\019\SLS_front_pre5\markers_experimental.trc
DataRate	CameraRate	NumFrames	NumMarkers	Units	OrigDataRate	OrigDataStartFrame	OrigNumFrames
200.000000	200.000000	4	59	mm	200.000000	1339	1531
Frame#	Time	FHD			LBHD			RBHD			C7			T10			CLAV			LSHO			LUUPA			LMUPA			LDUPA			LLEP			LMEP			LRAD			LUL			LRFIN			RSHO			RUPA1			RMUPA			RDUPA			RLEP			RMEP			RRAD			RUL			RUFIN			LASI			RASI			USACR			LSACR			RSACR			LTHI1			LTHI2			LTHI3			LTHI4			LLFC			LTIB1			LTIB2			LTIB3			LTIB4			LLMAL			LMMAL			LHEE			LMT1			LMT2			LMT5			RTHI3			RTHI4			RLFC			RTIB1			RTIB2			RTIB3			RTIB4			RLMAL			RMMAL			RHEE			RMT1			RMT2			RMT5			RTHI			RTHI2			
		X1	Y1	Z1	X2	Y2	Z2	X3	Y3	Z3	X4	Y4	Z4	X5	Y5	Z5	X6	Y6	Z6	X7	Y7	Z7	X8	Y8	Z8	X9	Y9	Z9	X10	Y10	Z10	X11	Y11	Z11	X12	Y12	Z12	X13	Y13	Z13	X14	Y14	Z14	X15	Y15	Z15	X16	Y16	Z16	X17	Y17	Z17	X18	Y18	Z18	X19	Y19	Z19	X20	Y20	Z20	X21	Y21	Z21	X22	Y22	Z22	X23	Y23	Z23	X24	Y24	Z24	X25	Y25	Z25	X26	Y26	Z26	X27	Y27	Z27	X28	Y28	Z28	X29	Y29	Z29	X30	Y30	Z30	X31	Y31	Z31	X32	Y32	Z32	X33	Y33	Z33	X34	Y34	Z34	X35	Y35	Z35	X36	Y36	Z36	X37	Y37	Z37	X38	Y38	Z38	X39	Y39	Z39	X40	Y40	Z40	X41	Y41	Z41	X42	Y42	Z42	X43	Y43	Z43	X44	Y44	Z44	X45	Y45	Z45	X46	Y46	Z46	X47	Y47	Z47	X48	Y48	Z48	X49	Y49	Z49	X50	Y50	Z50	X51	Y51	Z51	X52	Y52	Z52	X53	Y53	Z53	X54	Y54	Z54	X55	Y55	Z55	X56	Y56	Z56	X57	Y57	Z57	X58	Y58	Z58	X59	Y59	Z59	

1340	6.695	-282.3801269531251	1728.293823242188	-617.5028686523439	-411.5367126464845	1686.238891601563	-757.0072631835939	-408.7280273437501	1674.470336914063	-617.4942016601564	-425.3126831054689	1512.232543945313	-687.0173339843751	-459.8153686523439	1223.040771484375	-699.5233764648439	-289.3535156250001	1469.8251953125	-696.7241821289064	-355.4388427734376	1531.11328125	-821.8789062500002	-230.8444519042969	1501.652954101563	-882.0625610351565	-207.642807006836	1489.347534179688	-842.924255371094	-164.4727172851563	1494.6953125	-885.4020996093752	-96.86391448974612	1464.87255859375	-923.9183349609377	-101.8045043945313	1405.745727539063	-914.7890625000002	154.6230773925782	1439.257446289063	-841.2502441406252	149.1782379150391	1450.069580078125	-909.8325805664065	225.1225738525391	1449.803466796875	-838.4632568359377	-341.8133544921876	1510.39453125	-570.5359497070314	-223.8978271484376	1442.874877929688	-470.4184570312501	-200.0221252441407	1470.273315429688	-503.8096313476564	-154.6997375488282	1440.52685546875	-469.4914855957032	-80.16773986816408	1440.703979492188	-480.509979248047	-88.80918884277345	1380.175415039063	-493.7096557617189	157.0390319824219	1453.619873046875	-564.9168090820314	168.467269897461	1462.113647460938	-499.5309143066407	243.9713134765626	1468.65380859375	-566.6609497070314	-319.5512084960938	1038.311889648438	-836.810974121094	-298.4340515136719	1005.70849609375	-631.8801879882814	-467.1446228027345	1089.603149414063	-712.5177001953126	-477.1339111328126	1061.412231445313	-744.0317382812501	-467.5310363769532	1055.296997070313	-687.6162109375001	-232.7606201171876	851.5780029296877	-927.8896484375002	-149.217529296875	835.4951171875002	-921.5371704101565	-125.3122787475586	871.461120605469	-901.5713500976565	-122.1784896850586	780.5267333984377	-916.5727539062502	-61.12820434570314	710.2128295898439	-897.3545532226565	22.50242805480957	590.2439575195314	-865.9783935546877	-28.83463096618653	534.8623657226564	-911.751403808594	8.74727249145508	539.1389770507814	-891.6721191406252	22.7733268737793	462.0536499023439	-853.1146240234377	-19.46575164794922	323.8206787109376	-865.0464477539065	-1.138242363929749	338.0621948242188	-788.9727172851565	-88.00747680664064	302.2457580566407	-808.3197021484377	122.9012069702149	256.6972045898438	-801.5113525390627	123.3999710083008	249.8077850341797	-840.583435058594	73.30602264404298	223.5718383789063	-883.3392333984377	-271.3923645019532	755.1539306640626	-603.3109130859376	-320.9634094238282	672.0166625976564	-587.0628662109376	-349.4648437500001	513.8118896484376	-631.2642211914064	-304.3993835449219	338.4098205566407	-701.2045288085939	-360.9587707519532	254.1790161132813	-656.6591186523439	-325.0021057128907	254.9617309570313	-686.7279052734376	-332.0521545410157	216.9976348876954	-731.5328369140626	-394.561737060547	127.7443161010742	-700.6900024414064	-377.0280761718751	140.2595825195313	-774.2055664062502	-456.4547424316407	107.2044754028321	-755.3010253906251	-257.1205139160157	56.1012420654297	-774.537780761719	-249.3101348876954	52.89365386962892	-732.5089721679689	-294.9695129394532	47.67436981201173	-675.6091308593751	-341.1460266113282	800.8449707031252	-575.1487426757814	-298.8247375488282	755.0395507812501	-582.9725341796876	
1341	6.7	-282.5033874511719	1728.369262695313	-617.8549804687501	-411.713836669922	1686.252319335938	-757.2471313476564	-408.8853149414064	1674.751586914063	-617.6754150390626	-425.5833740234376	1512.135986328125	-687.2141723632814	-459.8740234375001	1222.954223632813	-699.6054687500001	-289.4888610839844	1469.845336914063	-696.9143676757814	-355.5991821289063	1531.055297851563	-822.0044555664065	-231.0193176269532	1501.686645507813	-882.223327636719	-207.2485504150391	1489.757202148438	-842.9068603515627	-164.6240539550782	1494.713745117188	-885.5881958007815	-97.00661468505862	1464.914916992188	-924.1364746093752	-101.9367370605469	1405.759399414063	-914.959655761719	154.4332885742188	1439.559448242188	-841.469909667969	148.9735565185547	1450.313720703125	-910.0530395507815	224.9928283691407	1450.094116210938	-838.660095214844	-341.8984680175782	1510.264892578125	-570.7425537109376	-223.8847656250001	1442.901611328125	-470.6403808593751	-200.1089935302735	1470.233276367188	-503.9717102050782	-154.7972259521485	1440.57958984375	-469.652801513672	-80.30223083496095	1440.7685546875	-480.737518310547	-88.78430175781251	1380.203979492188	-494.0345153808595	157.0124969482422	1453.732299804688	-565.1245727539064	168.3417053222657	1462.2373046875	-499.8614501953126	244.1818847656251	1469.035766601563	-566.9351806640626	-319.5914001464844	1038.240234375	-836.8614501953127	-298.5050659179688	1005.695617675781	-631.9166259765626	-467.1310119628907	1089.556640625	-712.5739135742189	-476.9873657226564	1061.270629882813	-744.0496826171876	-467.562713623047	1055.26513671875	-687.6902465820314	-232.8230438232422	851.544128417969	-927.9505004882815	-149.1855773925782	835.3966064453127	-921.5517578125002	-125.3281860351563	871.4012451171877	-901.6245117187502	-122.1756362915039	780.4927978515627	-916.5944824218752	-61.217342376709	710.1766967773439	-897.4250488281252	22.54671859741211	590.2351074218751	-865.9585571289065	-28.85427474975587	534.8444824218751	-911.8143310546877	8.753272056579592	539.1455078125001	-891.7037353515627	22.79581451416016	462.0285949707032	-853.117858886719	-19.35279846191407	323.7849121093751	-865.0576171875002	-1.026319980621338	338.0686645507813	-788.9800415039065	-87.94215393066408	302.2050781250001	-808.2626953125002	122.9585952758789	256.7525634765626	-801.5573730468752	123.3903884887696	249.894515991211	-840.410339355469	73.11843872070314	223.6005554199219	-883.0957031250002	-271.3590087890626	755.3267211914064	-603.5139770507814	-320.8680419921876	671.9652709960939	-587.2692871093751	-349.3778991699219	513.6381835937501	-631.4870605468751	-304.3789672851563	338.3427429199219	-701.5535278320314	-360.3745727539063	254.2157440185547	-657.1801757812501	-324.9385375976563	254.8970336914063	-686.9985961914064	-332.0422668457032	216.9206237792969	-731.9019165039064	-394.5161132812501	127.7446441650391	-700.8540649414064	-377.1995239257813	140.4552459716797	-774.825622558594	-456.3200683593751	107.1934890747071	-755.3322753906251	-257.0456237792969	56.01368713378908	-774.5263671875002	-249.2614440917969	52.85507202148439	-732.6227416992189	-295.0151977539063	47.80984497070313	-675.7410278320314	-341.0228271484376	800.8338623046877	-575.2106933593751	-297.7705993652344	754.6717529296876	-582.6569824218751	
1342	6.705	-282.5198364257813	1728.27978515625	-618.1412353515626	-411.7749938964845	1686.2080078125	-757.5062255859376	-408.893524169922	1674.488525390625	-617.9535522460939	-425.7259826660157	1512.125854492188	-687.3116455078126	-460.0066528320314	1222.875366210938	-699.6133422851564	-289.5391540527344	1469.810791015625	-697.0723266601564	-355.7066650390626	1530.986572265625	-822.1755371093752	-231.1587524414063	1501.672973632813	-882.4085083007815	-207.6521148681641	1489.82470703125	-843.2698974609377	-164.8318023681641	1494.766479492188	-885.778015136719	-97.11911773681643	1464.993774414063	-924.3614501953127	-102.0666427612305	1405.8466796875	-915.1704101562502	154.2771301269532	1439.848022460938	-841.7093505859377	148.839340209961	1450.493408203125	-910.2960205078127	224.9040985107422	1450.367919921875	-838.8794555664065	-342.1770019531251	1510.450317382813	-571.0958251953126	-223.9571685791016	1442.913208007813	-470.8097534179689	-200.2717590332032	1470.234497070313	-504.2026977539064	-154.8934631347657	1440.6123046875	-469.8024291992189	-80.3122024536133	1440.789794921875	-480.9594116210939	-88.73663330078126	1380.203735351563	-494.3193359375001	156.8567047119141	1453.775146484375	-565.4490966796876	168.2959442138672	1462.346313476563	-500.0980834960939	244.4663085937501	1469.245727539063	-567.0834350585939	-319.7211608886719	1038.192626953125	-836.9569091796877	-298.4020385742188	1005.615783691406	-632.0045776367189	-467.2196655273439	1089.423461914063	-712.5556640625001	-476.955780029297	1061.102661132813	-744.0733032226564	-467.5668029785157	1055.115112304688	-687.7064208984376	-232.8134765625001	851.4519042968752	-927.9935302734377	-149.2938232421875	835.332458496094	-921.5899047851565	-125.3950729370117	871.3746337890627	-901.7048950195315	-122.2286605834961	780.4591064453127	-916.6802368164065	-61.15997314453126	710.1759033203126	-897.5056152343752	22.47466850280762	590.2511596679689	-866.0804443359377	-28.77080154418946	534.8222656250001	-911.8217773437502	8.715054512023928	539.1248779296876	-891.706237792969	22.83466529846192	461.9950256347657	-853.1970825195315	-19.28943634033203	323.7834167480469	-865.099548339844	-0.9392688870429995	338.0559997558594	-788.988464355469	-87.8954315185547	302.2072143554688	-808.288024902344	123.0555725097657	256.7177429199219	-801.6026000976565	123.6472854614258	249.8524169921876	-841.0703125000002	73.43850708007814	223.5740966796876	-883.358093261719	-271.1991577148438	755.0091552734376	-603.8145751953126	-320.8355407714844	671.9509277343751	-587.4449462890626	-349.3218994140626	513.6951904296876	-631.6499023437501	-304.3908081054688	338.3424072265626	-701.9394531250001	-360.7168579101563	254.0653381347657	-656.9890136718751	-324.8936767578126	254.7498321533204	-687.2910156250001	-332.0674743652344	216.9358367919922	-732.2058105468751	-394.501678466797	127.7379531860352	-701.0397338867189	-377.1169738769532	140.0968322753907	-774.773620605469	-456.4343872070314	107.2347183227539	-755.3939208984376	-257.0515441894532	56.00836181640626	-774.6352539062502	-249.2842559814454	52.91188812255861	-732.6231689453126	-295.0191345214844	47.91040420532227	-675.7486572265626	-340.8528137207032	800.7405395507815	-575.4065551757814	-297.5510864257813	754.5333862304689	-582.9097900390626	
1343	6.71	-282.5032348632813	1728.210205078125	-618.4587402343751	-411.8337402343751	1686.160400390625	-757.7293701171876	-408.9181213378907	1674.529174804688	-618.1745605468751	-425.8484497070314	1512.060668945313	-687.4971313476564	-459.9908142089845	1222.79931640625	-699.6817016601564	-289.7608947753907	1469.770385742188	-697.2563476562501	-355.9347839355469	1530.941528320313	-822.3793945312502	-231.3512573242188	1501.693115234375	-882.5481567382815	-208.111557006836	1489.410400390625	-843.502624511719	-165.0560913085938	1494.801635742188	-885.958190917969	-97.30744934082034	1465.058471679688	-924.5428466796877	-102.1761932373047	1405.874755859375	-915.2849121093752	154.0515899658203	1440.17236328125	-841.9585571289065	148.5552825927735	1450.737670898438	-910.5510253906252	224.6768798828126	1450.676635742188	-839.1384887695315	-342.2371215820313	1510.400024414063	-571.2348632812501	-223.9443664550782	1442.922607421875	-470.9879760742189	-200.3200836181641	1470.258422851563	-504.4440307617189	-155.0065307617188	1440.713012695313	-470.0423889160157	-80.45161437988283	1440.824096679688	-481.1524353027345	-88.91526794433595	1380.2119140625	-494.4778747558595	156.8226623535157	1453.845825195313	-565.6768798828126	168.2832794189453	1462.380493164063	-500.3844299316407	243.7982025146485	1469.313232421875	-567.4084472656251	-319.7394714355469	1038.163208007813	-836.9621582031252	-298.3569335937501	1005.552673339844	-632.0772094726564	-467.1458129882814	1089.38134765625	-712.6304321289064	-476.4880371093751	1060.803588867188	-744.1484985351564	-467.5886535644532	1055.046142578125	-687.8011474609376	-232.8844909667969	851.4324340820315	-928.0333251953127	-149.3975677490235	835.1989746093752	-921.4595336914065	-125.4237060546875	871.3468017578127	-901.7546386718752	-122.2630844116211	780.3942871093752	-916.7122802734377	-61.29444503784181	710.1824951171876	-897.5632324218752	22.51878356933594	590.2169189453126	-866.1336059570315	-28.8437728881836	534.7913818359376	-911.8611450195315	8.798984527587892	539.0982666015626	-891.7087402343752	22.9158000946045	462.0424804687501	-853.2744750976565	-19.10083961486817	323.7715148925782	-865.090270996094	-0.9485540986061098	338.0543823242188	-789.026306152344	-87.79978942871095	302.2261352539063	-808.2944946289065	123.1839752197266	256.7798461914063	-801.6174316406252	123.5067977905274	249.9820098876954	-840.6044921875002	73.63824462890626	223.4850158691407	-883.352478027344	-271.1357727050782	754.9382324218751	-604.0419921875001	-320.7087097167969	671.8994750976564	-587.6160278320314	-349.2700805664063	513.6606445312501	-631.8509521484376	-304.3167724609376	338.3659973144532	-702.1763916015626	-360.5895690917969	254.0267333984376	-657.1369628906251	-324.7172546386719	254.7350311279297	-687.5100097656251	-332.1066284179688	216.8473510742188	-732.3984985351564	-394.4735107421876	127.7661972045899	-701.1782836914064	-377.2096252441407	139.9681243896485	-774.909851074219	-456.4093017578126	107.159912109375	-755.4281005859376	-257.0582885742188	55.86608886718751	-774.6680908203127	-249.282211303711	52.8961868286133	-732.5671386718751	-295.0516357421876	47.96321868896485	-675.7932128906251	-340.7915039062501	800.613220214844	-575.5297241210939	-297.3679504394532	754.4644165039064	-583.1120605468751	
